<?xml version="1.0" standalone="no"?>
<!DOCTYPE svg PUBLIC "-//W3C//DTD SVG 20010904//EN"
 "http://www.w3.org/TR/2001/REC-SVG-20010904/DTD/svg10.dtd">
<svg version="1.0" xmlns="http://www.w3.org/2000/svg"
 width="432.000000pt" height="432.000000pt" viewBox="0 0 432.000000 432.000000"
 preserveAspectRatio="xMidYMid meet">
<metadata>
Created by potrace 1.11, written by Peter Selinger 2001-2013
</metadata>
<g transform="translate(0.000000,432.000000) scale(0.100000,-0.100000)"
fill="#000000" stroke="none">
<path d="M2210 4079 c0 -5 -4 -7 -10 -4 -5 3 -10 -1 -10 -9 0 -9 -4 -16 -10
-16 -5 0 -10 5 -10 11 0 6 -9 9 -20 6 -11 -3 -20 -1 -20 5 0 11 -43 -1 -48
-13 -2 -5 -13 -4 -24 2 -13 7 -18 7 -14 1 9 -15 -14 -20 -50 -12 -17 4 -43 6
-59 4 -16 -2 -35 2 -42 8 -9 7 -17 7 -25 1 -16 -12 -128 -11 -147 1 -10 6 -12
5 -7 -2 5 -8 -1 -12 -14 -12 -14 0 -19 4 -14 13 5 8 2 7 -9 -2 -11 -9 -39 -13
-77 -12 -33 0 -60 -3 -60 -8 0 -5 -20 -9 -45 -9 -30 0 -45 4 -45 12 0 9 -9 12
-25 8 -14 -2 -23 -8 -20 -12 2 -4 -19 -6 -46 -5 -33 1 -52 -2 -56 -10 -3 -9
-23 -12 -61 -11 -42 2 -66 -3 -91 -18 -39 -23 -80 -28 -100 -12 -11 8 -13 8
-8 0 9 -15 -17 -26 -31 -12 -12 12 -47 -4 -55 -27 -4 -9 -13 -12 -23 -8 -11 4
-15 2 -11 -4 4 -6 -3 -9 -18 -8 -13 2 -26 -3 -29 -11 -4 -10 -2 -12 6 -8 7 4
8 3 4 -5 -4 -6 -11 -9 -16 -6 -13 8 -52 -14 -45 -26 4 -5 -8 -9 -25 -9 -18 0
-29 -4 -25 -10 4 -7 -3 -7 -20 0 -17 7 -24 7 -20 0 3 -6 -1 -10 -9 -10 -10 0
-13 -6 -9 -17 4 -10 2 -14 -4 -10 -6 4 -21 -2 -33 -13 -12 -11 -26 -17 -30
-15 -4 3 -10 -2 -14 -10 -3 -8 -1 -17 4 -20 5 -3 8 -14 7 -25 -1 -13 -5 -16
-11 -10 -16 16 -30 11 -16 -5 11 -13 10 -14 -6 -9 -10 4 -25 12 -33 18 -12 9
-13 8 -8 -6 3 -10 2 -18 -4 -18 -6 0 -7 -4 -4 -10 8 -12 -9 -43 -21 -39 -5 1
-15 9 -22 18 -8 9 -10 10 -7 3 11 -20 13 -62 4 -56 -13 8 -11 -10 4 -26 10
-12 9 -12 -4 -2 -16 12 -59 5 -59 -10 0 -5 5 -6 12 -2 6 4 3 -5 -8 -19 -10
-15 -25 -27 -31 -27 -7 0 -13 -4 -13 -10 0 -5 -6 -10 -13 -10 -8 0 -14 -6 -15
-12 -2 -34 -13 -62 -29 -75 -10 -8 -13 -12 -6 -9 8 5 8 0 0 -19 -7 -14 -20
-25 -30 -25 -18 0 -19 -20 -2 -32 6 -5 3 -14 -7 -25 -14 -13 -18 -14 -18 -3 0
9 -5 8 -14 -6 -9 -12 -12 -30 -8 -49 5 -28 4 -29 -12 -13 -17 17 -46 15 -46
-4 0 -6 8 -7 18 -4 10 4 6 -3 -11 -19 -15 -14 -25 -30 -22 -35 3 -5 -4 -12
-15 -15 -15 -5 -18 -10 -11 -19 7 -8 6 -17 -1 -26 -8 -12 -9 -12 -4 3 3 11 0
17 -9 17 -23 0 -18 -30 7 -39 l22 -8 -24 -6 c-16 -4 -21 -11 -18 -25 3 -10 0
-26 -7 -36 -13 -18 -9 -59 5 -51 5 3 11 1 15 -4 3 -6 -3 -8 -14 -6 -11 2 -25
-3 -32 -11 -10 -12 -9 -16 8 -20 22 -6 24 -38 3 -57 -12 -10 -12 -9 -3 3 17
22 2 38 -27 29 -18 -5 -20 -7 -6 -8 13 -1 17 -6 13 -21 -3 -12 0 -20 8 -20 8
0 11 -8 8 -20 -3 -11 -9 -20 -14 -20 -5 0 -6 7 -3 15 4 8 2 15 -4 15 -10 0
-22 -23 -22 -41 0 -6 6 -7 13 -3 9 6 9 5 0 -8 -7 -8 -10 -18 -6 -21 3 -4 1 -7
-5 -7 -17 0 -15 -30 3 -36 11 -4 12 -11 5 -24 -5 -9 -6 -20 -2 -24 3 -4 -1 -4
-10 -1 -9 4 -19 0 -24 -7 -4 -7 -4 -10 1 -6 13 13 35 -25 23 -39 -7 -9 -7 -17
1 -27 10 -12 8 -13 -9 -9 -16 4 -19 2 -14 -11 3 -9 10 -14 14 -11 5 3 7 -3 6
-12 -2 -10 2 -21 8 -26 7 -4 3 -9 -11 -13 -19 -5 -20 -8 -8 -20 20 -21 35 -17
36 9 1 18 2 19 6 3 3 -10 0 -23 -6 -29 -13 -13 -15 -30 -2 -23 5 3 14 -1 21
-9 9 -11 5 -15 -24 -21 -20 -3 -33 -10 -30 -15 3 -5 10 -7 15 -4 5 3 6 0 3 -8
-3 -8 2 -17 10 -20 9 -4 16 -1 16 6 0 8 3 7 9 -2 7 -10 5 -19 -6 -26 -14 -11
-14 -13 4 -26 23 -16 44 -47 23 -34 -9 5 -10 2 -5 -14 4 -12 2 -21 -4 -21 -6
0 -10 -3 -10 -7 1 -5 1 -15 0 -23 -1 -13 -2 -13 -11 0 -5 8 -10 12 -11 8 -5
-25 -4 -34 6 -40 6 -5 5 -8 -3 -8 -10 0 -10 -4 2 -15 8 -9 13 -22 10 -29 -3
-7 9 -25 25 -39 19 -16 26 -27 18 -30 -9 -3 -9 -9 0 -28 20 -42 20 -54 0 -71
-17 -15 -17 -19 -4 -23 18 -8 18 -96 -1 -103 -7 -2 -12 -8 -12 -13 0 -4 7 -6
15 -3 8 4 15 1 15 -6 0 -6 -4 -9 -8 -6 -4 2 -14 1 -22 -4 -11 -7 -7 -10 13
-15 20 -5 25 -11 17 -20 -5 -6 -7 -15 -3 -18 3 -4 2 -7 -4 -7 -16 0 -24 -28
-11 -36 7 -4 8 -3 4 4 -4 7 -5 12 -2 12 9 0 37 -72 31 -79 -4 -3 -10 0 -14 8
-6 10 -10 9 -15 -5 -6 -16 7 -33 27 -34 4 0 6 -3 6 -7 -1 -5 -1 -16 0 -27 1
-16 3 -17 19 -5 14 11 13 10 -2 -9 l-19 -22 29 0 29 -1 -30 -15 c-16 -8 -22
-12 -13 -10 21 6 32 -22 16 -42 -11 -13 -10 -14 2 -10 18 6 39 -13 33 -29 -3
-7 -1 -13 4 -13 5 0 10 -12 11 -26 2 -31 11 -46 22 -39 4 3 6 -5 3 -17 -3 -13
-2 -20 2 -16 4 4 14 -4 22 -18 17 -33 17 -48 0 -41 -8 3 -13 -3 -14 -17 0 -11
1 -15 4 -8 7 17 23 15 23 -3 0 -8 -5 -15 -12 -15 -18 0 -3 -10 23 -15 12 -3
30 -12 38 -20 9 -9 11 -15 6 -13 -6 2 -12 -1 -15 -6 -3 -5 3 -10 13 -12 22 -3
36 -14 19 -14 -7 0 -12 -7 -12 -15 0 -8 6 -12 13 -9 8 3 14 -2 14 -10 0 -8 -4
-13 -9 -10 -4 3 -8 0 -8 -5 0 -6 6 -11 14 -11 12 0 24 -16 31 -42 2 -5 3 -22
4 -39 1 -24 5 -30 17 -25 8 3 12 2 9 -4 -5 -9 7 -14 27 -12 3 1 9 -5 12 -14 3
-8 1 -12 -4 -9 -6 3 -7 -1 -4 -9 3 -9 11 -13 18 -9 8 5 8 3 0 -8 -16 -22 -3
-66 17 -54 5 4 9 1 9 -6 0 -8 4 -8 15 1 11 10 15 10 15 0 0 -6 15 -27 34 -45
19 -18 32 -36 29 -39 -7 -7 12 -9 41 -6 14 1 17 -3 12 -15 -9 -25 12 -49 31
-34 11 9 17 8 29 -7 9 -10 13 -13 9 -6 -7 14 14 16 35 2 10 -6 11 -10 3 -10
-7 0 -13 -5 -13 -11 0 -5 4 -8 9 -4 6 3 15 -3 20 -14 14 -26 14 -34 -1 -25 -7
4 -9 3 -5 -1 8 -10 33 -16 58 -16 9 0 16 -7 17 -15 1 -8 3 -21 4 -29 1 -8 8
-17 16 -20 10 -4 12 0 8 10 -3 9 -2 13 4 10 6 -3 10 -15 10 -26 0 -25 21 -47
39 -41 7 2 17 -2 22 -9 6 -11 9 -10 14 3 11 27 36 10 30 -21 -4 -20 -3 -22 3
-7 8 18 9 18 15 2 6 -15 10 -16 22 -6 12 10 15 10 15 -3 0 -9 -8 -21 -17 -26
-15 -8 -12 -10 14 -7 18 2 31 0 30 -3 -1 -4 8 -17 19 -29 l22 -23 16 22 c18
26 22 18 6 -12 -9 -15 -7 -21 5 -25 9 -4 14 -13 11 -20 -5 -13 28 -14 74 -1 8
2 12 2 8 0 -15 -9 -8 -35 7 -29 8 3 15 1 15 -4 0 -5 8 -7 18 -4 13 5 14 4 3
-4 -12 -8 -12 -12 0 -25 12 -13 16 -13 32 1 16 15 17 15 11 -1 -7 -20 6 -23
24 -5 9 9 15 9 25 -1 6 -7 8 -11 2 -9 -5 2 -11 -2 -12 -7 -1 -6 13 -9 32 -7
26 3 37 -1 41 -13 5 -12 9 -14 14 -4 6 9 12 8 25 -4 9 -10 21 -15 26 -12 5 4
10 -2 10 -12 1 -10 2 -25 3 -33 0 -8 9 -14 19 -14 9 1 17 -3 17 -8 0 -6 8 -4
17 3 11 10 14 10 9 2 -5 -9 0 -13 13 -13 12 0 21 -4 21 -10 0 -5 3 -9 8 -9 4
1 12 0 17 -1 6 -1 24 -1 42 0 23 1 32 -3 35 -16 3 -16 5 -16 18 -2 13 13 18
13 28 1 7 -7 17 -11 23 -8 5 4 9 -1 9 -9 0 -8 5 -18 12 -22 7 -4 8 -3 4 4 -4
7 -1 12 8 12 8 0 16 5 18 12 3 8 15 4 37 -11 18 -13 35 -20 38 -17 4 3 1 6 -6
6 -7 0 -10 4 -7 9 3 5 16 7 28 3 16 -4 19 -2 13 8 -5 8 -4 11 3 6 6 -4 9 -12
6 -19 -3 -8 6 -13 26 -13 20 -1 27 2 23 10 -4 6 2 4 12 -4 11 -9 16 -10 11 -2
-4 6 -2 12 3 12 6 0 11 -4 11 -10 0 -5 9 -10 19 -10 14 0 19 6 16 19 -4 23 23
37 31 17 3 -8 15 -14 27 -14 75 -2 115 -7 111 -14 -3 -5 8 -7 24 -6 17 1 28 7
26 13 -3 7 7 11 28 10 17 -1 34 -7 36 -13 2 -7 8 -12 13 -12 6 0 7 4 4 10 -3
5 2 10 13 10 10 0 22 3 25 7 9 8 96 11 94 3 -3 -7 8 -10 31 -10 16 1 16 1 -1
14 -16 12 -16 14 -2 20 9 3 13 2 10 -4 -3 -6 0 -10 9 -10 8 0 17 -6 19 -12 4
-10 6 -10 6 0 1 6 8 12 17 12 10 0 14 6 11 15 -4 8 -1 17 5 21 7 4 8 3 4 -4
-5 -8 1 -12 14 -12 16 0 20 4 16 16 -3 8 -2 12 3 9 5 -3 13 0 17 6 5 8 9 7 14
-2 7 -10 11 -10 24 0 9 8 16 10 16 5 0 -5 5 -2 10 6 7 11 10 11 10 2 0 -7 4
-10 10 -7 5 3 10 -2 10 -11 0 -16 3 -15 20 4 11 12 27 19 35 16 8 -4 23 0 32
7 12 10 15 10 9 2 -4 -7 -4 -13 -1 -13 10 0 35 28 35 39 0 17 22 24 30 10 7
-10 12 -10 23 0 12 9 16 9 19 -1 4 -10 8 -10 21 1 21 17 11 34 -15 28 -19 -5
-19 -4 -3 13 18 20 55 33 55 20 0 -13 80 -9 81 4 1 6 2 21 2 33 0 15 4 20 16
15 14 -5 14 -4 1 13 -14 17 -14 18 8 6 12 -7 20 -17 16 -23 -5 -7 -2 -8 5 -4
7 5 10 14 7 22 -3 8 0 11 10 7 8 -3 14 1 14 10 0 16 16 17 37 4 21 -13 28 21
10 51 -5 7 -4 12 2 12 18 0 26 3 39 17 8 7 18 10 24 7 6 -4 14 0 19 7 5 9 9
10 9 2 0 -9 19 -11 40 -3 3 1 9 2 14 1 5 -1 6 4 3 12 -3 7 1 14 9 15 8 1 21 3
29 4 11 1 12 5 4 15 -6 7 -16 10 -22 6 -6 -4 -7 -1 -2 6 5 9 10 10 18 2 6 -6
20 -11 30 -11 16 0 17 2 7 15 -11 13 -10 14 5 9 14 -6 16 -4 10 6 -6 10 -4 12
8 7 12 -4 15 -1 12 14 -3 16 -1 18 16 9 10 -6 19 -7 18 -3 -4 22 2 34 14 27 6
-4 3 2 -7 14 -19 22 -19 22 7 22 15 0 27 -5 27 -12 0 -6 3 -8 7 -4 5 4 -1 14
-12 23 -20 15 -20 15 3 8 13 -4 22 -2 22 4 0 6 -4 11 -10 11 -5 0 -10 8 -10
18 0 14 2 15 10 2 7 -11 10 -11 10 -2 0 7 5 10 10 7 14 -9 12 8 -2 24 -10 11
-10 13 0 7 6 -4 12 -3 12 2 0 5 7 9 15 9 8 0 15 -4 15 -9 0 -5 4 -7 10 -3 14
9 0 35 -19 35 -13 0 -14 2 -2 9 10 7 19 4 28 -7 13 -15 13 -14 7 7 -5 20 -3
23 11 17 13 -4 16 -2 11 9 -3 8 -1 15 3 15 5 0 8 11 6 25 -1 14 2 28 8 32 6 3
7 1 3 -5 -4 -7 0 -12 10 -12 16 0 16 1 -1 20 -10 11 -15 21 -12 21 4 1 10 2
15 3 18 3 33 19 28 31 -3 8 4 25 14 38 11 13 16 27 12 31 -3 4 2 4 13 0 18 -7
19 -6 5 11 -8 10 -10 16 -3 12 6 -4 18 -4 27 -1 19 7 22 44 4 44 -7 1 1 9 19
18 18 9 32 19 32 22 -1 18 15 39 25 33 6 -3 2 3 -8 15 -11 12 -16 25 -13 29 4
3 7 1 7 -6 0 -9 5 -9 20 -1 24 13 27 32 3 23 -15 -6 -16 -5 -3 9 8 9 17 14 19
12 6 -6 30 29 31 45 0 7 -6 11 -12 8 -8 -3 -13 4 -13 18 0 13 3 21 7 19 4 -3
6 9 4 26 -2 17 1 33 7 37 6 4 7 1 2 -8 -6 -10 -5 -11 3 -4 6 6 13 22 16 35 2
14 5 27 7 30 1 3 2 19 3 35 1 18 6 29 14 27 9 -2 9 5 -2 27 -15 28 -15 29 9
35 22 6 23 9 15 32 -13 33 -13 37 1 28 8 -5 10 1 7 20 -5 26 -5 26 16 9 19
-17 20 -17 7 0 -7 9 -10 17 -5 17 5 0 3 4 -5 9 -19 12 -6 45 15 37 13 -5 14
-3 6 7 -6 7 -10 26 -10 42 1 17 -2 40 -6 53 -5 15 -3 22 6 22 10 0 9 3 -2 10
-12 8 -12 10 -1 10 10 0 11 3 3 13 -9 10 -7 19 4 35 8 12 13 26 9 31 -3 5 0
13 6 17 7 4 9 3 6 -3 -3 -5 1 -10 9 -10 10 0 11 4 4 11 -16 16 -12 36 8 30 15
-5 15 -4 2 8 -9 7 -15 30 -15 53 0 34 3 40 20 37 20 -4 20 -3 0 13 -15 13 -16
15 -3 12 16 -6 20 15 5 29 -12 12 -8 26 6 21 8 -3 14 1 14 9 0 8 -6 13 -13 10
-13 -5 -13 11 -1 32 5 7 3 12 -4 12 -7 0 -9 3 -6 7 4 3 17 -2 29 -13 13 -12
18 -13 13 -4 -5 8 -10 21 -12 29 -2 18 -24 32 -41 26 -9 -3 -10 0 -2 15 13 25
13 33 -2 24 -7 -4 -5 2 5 13 9 11 14 23 10 28 -5 4 -3 5 4 1 6 -3 14 -2 18 4
4 6 11 7 17 4 7 -4 8 2 3 17 -10 32 -12 34 -28 21 -10 -9 -13 -6 -13 13 0 13
3 22 7 20 3 -3 15 3 25 11 10 9 12 12 4 8 -13 -7 -13 -5 -2 8 11 14 8 20 -20
42 -18 14 -27 26 -19 26 11 0 11 3 0 17 -9 11 -10 14 -2 9 7 -4 20 -3 29 2 14
8 14 10 -1 22 -14 12 -18 12 -26 -1 -6 -9 -9 -10 -9 -2 0 7 9 18 19 25 15 9
17 15 9 25 -6 7 -15 13 -20 13 -7 0 -6 -5 1 -13 8 -10 7 -14 -4 -14 -8 0 -15
9 -15 19 0 10 5 18 10 18 6 0 10 7 10 16 0 8 4 13 9 10 5 -3 12 1 15 10 3 8 2
12 -4 9 -6 -3 -10 -1 -10 6 0 7 -7 4 -15 -7 -9 -12 -14 -14 -15 -6 0 7 -4 11
-9 7 -5 -3 -13 0 -17 6 -4 7 -3 9 2 6 6 -3 16 -2 24 3 12 7 12 10 -3 16 -20 7
-22 35 -5 52 9 9 8 12 -8 13 -11 0 -14 3 -6 6 10 4 10 9 -3 23 -9 10 -17 27
-18 39 -1 16 -6 20 -20 15 -14 -4 -17 -3 -12 6 5 8 1 18 -9 25 -15 12 -15 13
0 19 15 6 15 8 -2 28 -11 12 -14 18 -8 15 7 -4 14 3 16 17 4 21 1 24 -22 22
-24 -2 -26 0 -17 15 6 10 16 15 22 13 5 -3 1 2 -9 10 -11 9 -16 16 -11 16 5 0
1 6 -9 13 -11 8 -16 20 -13 28 4 11 6 10 6 -2 1 -9 10 -19 21 -22 11 -3 18 0
17 6 -1 6 3 11 8 12 6 0 20 6 31 13 12 6 24 9 28 7 3 -3 4 -2 1 2 -3 3 3 12
13 20 15 13 15 14 0 9 -9 -2 -24 4 -35 16 -10 12 -12 18 -5 14 6 -4 12 -3 12
2 0 13 -36 22 -47 11 -5 -5 -9 1 -10 13 -1 13 1 18 5 13 4 -6 18 -10 32 -10
36 0 41 -4 31 -24 -9 -15 -6 -18 23 -17 29 1 32 3 22 19 -6 9 -12 13 -14 7 -5
-15 -19 -12 -19 5 0 8 4 15 9 15 5 0 6 5 2 11 -4 8 -9 7 -15 -2 -7 -11 -9 -11
-9 1 0 13 -1 13 -10 0 -6 -10 -10 -11 -10 -2 0 6 -11 12 -25 12 -14 0 -25 3
-25 8 0 4 -18 7 -39 7 -25 1 -37 -3 -33 -10 3 -5 -6 -2 -21 8 -15 10 -33 15
-40 11 -9 -5 -9 -4 0 6 8 9 9 19 2 32 -5 10 -7 18 -3 18 3 0 1 6 -5 13 -6 8
-8 17 -5 20 6 5 -5 21 -56 84 -6 7 -5 13 3 16 7 3 4 6 -5 6 -10 1 -18 6 -18
11 0 6 -8 10 -17 10 -14 0 -15 2 -5 9 10 6 10 10 -3 21 -12 10 -18 10 -32 -1
-15 -11 -16 -11 -5 1 16 19 15 30 -3 30 -8 0 -14 3 -14 8 3 20 -3 30 -22 35
-17 5 -20 11 -17 31 3 15 0 27 -8 30 -8 3 -14 1 -14 -3 0 -5 -9 -7 -21 -4 -12
4 -18 11 -15 20 3 7 -1 16 -9 19 -8 4 -15 11 -15 16 0 6 -12 22 -27 35 -16 13
-23 23 -16 21 6 -2 11 -1 10 2 -1 12 25 50 32 46 4 -3 6 6 3 21 -4 20 -2 24 9
18 8 -5 3 5 -11 21 -14 16 -27 31 -29 34 -2 3 -2 -2 2 -11 4 -13 0 -16 -19
-15 -25 1 -35 16 -11 16 8 0 14 6 14 13 0 8 -6 14 -13 14 -7 0 -11 -4 -8 -9 3
-4 -2 -9 -10 -9 -9 -1 -20 -3 -26 -4 -5 -1 -13 -3 -17 -4 -4 0 -2 -6 5 -13 16
-16 15 -25 -3 -25 -8 0 -12 4 -9 9 3 4 -7 8 -21 8 -15 0 -24 4 -20 10 3 6 0
10 -7 11 -7 0 -32 2 -55 3 -23 1 -46 5 -49 9 -4 4 -14 7 -22 7 -8 0 -25 11
-38 25 -12 13 -35 27 -51 31 -15 4 -39 16 -52 28 -13 11 -20 14 -16 6 7 -13 6
-13 -7 -2 -12 10 -17 10 -20 1 -2 -7 -11 -10 -21 -6 -10 4 -14 12 -11 22 5 11
2 14 -10 9 -9 -3 -13 -10 -10 -15 3 -5 -2 -6 -10 -3 -9 3 -13 10 -10 15 6 10
-7 12 -43 9 -13 -1 -23 3 -23 9 0 6 -15 11 -33 11 -18 0 -42 8 -53 18 -25 22
-45 26 -38 8 3 -8 1 -17 -5 -21 -6 -3 -11 -1 -11 4 0 15 -43 14 -59 -1 -11
-11 -12 -10 -6 1 6 11 3 13 -13 9 -12 -4 -20 -2 -16 3 3 5 0 9 -6 9 -6 0 -8 4
-5 10 3 6 -1 7 -10 4 -8 -4 -22 -1 -29 5 -10 9 -16 9 -21 1 -4 -6 -14 -9 -23
-5 -8 3 -19 0 -24 -7 -5 -9 -8 -6 -8 10 l0 23 -24 -25 c-25 -28 -38 -34 -30
-13 2 7 -3 13 -13 14 -52 3 -73 9 -73 20 0 16 -12 17 -27 2 -15 -15 -186 -14
-191 0 -5 14 -22 14 -22 0z m-1460 -253 c0 -3 -4 -8 -10 -11 -5 -3 -10 -1 -10
4 0 6 5 11 10 11 6 0 10 -2 10 -4z m2814 -4 c3 -5 -1 -9 -9 -9 -8 0 -12 4 -9
9 3 4 7 8 9 8 2 0 6 -4 9 -8z m-37 -17 c0 -8 -4 -15 -9 -15 -10 0 -11 14 -1
23 9 10 10 9 10 -8z m-2832 -25 c-3 -5 -12 -10 -18 -10 -7 0 -6 4 3 10 19 12
23 12 15 0z m-10 -48 c-3 -3 -11 0 -18 7 -9 10 -8 11 6 5 10 -3 15 -9 12 -12z
m-88 -54 c-3 -8 -6 -5 -6 6 -1 11 2 17 5 13 3 -3 4 -12 1 -19z m-307 -472 c0
-2 -7 -7 -16 -10 -8 -3 -12 -2 -9 4 6 10 25 14 25 6z m3690 -6 c0 -5 -2 -10
-4 -10 -3 0 -8 5 -11 10 -3 6 -1 10 4 10 6 0 11 -4 11 -10z m45 -80 c-3 -5
-12 -10 -18 -10 -7 0 -6 4 3 10 19 12 23 12 15 0z m-35 -41 c0 -5 -4 -9 -8 -9
-5 0 -9 7 -9 15 0 8 4 12 9 9 4 -3 8 -9 8 -15z m64 -341 c-3 -4 -9 -8 -15 -8
-5 0 -9 4 -9 8 0 5 7 9 15 9 8 0 12 -4 9 -9z m-4 -94 c0 -8 -19 -13 -24 -6 -3
5 1 9 9 9 8 0 15 -2 15 -3z m-3880 -78 c0 -2 -7 -7 -16 -10 -8 -3 -12 -2 -9 4
6 10 25 14 25 6z m-10 -62 c0 -8 -19 -13 -24 -6 -3 5 1 9 9 9 8 0 15 -2 15 -3z
m3926 -60 c1 -9 0 -13 -4 -10 -3 4 -7 14 -8 22 -1 9 0 13 4 10 3 -4 7 -14 8
-22z m-3956 -18 c0 -3 -4 -8 -10 -11 -5 -3 -10 -1 -10 4 0 6 5 11 10 11 6 0
10 -2 10 -4z m3935 -165 c3 -5 2 -12 -3 -15 -5 -3 -9 1 -9 9 0 17 3 19 12 6z
m-3920 -121 c-3 -5 -1 -10 6 -10 7 0 10 -3 6 -6 -9 -9 -28 6 -22 17 4 5 8 9
11 9 3 0 2 -4 -1 -10z m445 -1220 c0 -5 -5 -10 -11 -10 -5 0 -7 5 -4 10 3 6 8
10 11 10 2 0 4 -4 4 -10z m-40 -16 c0 -8 -19 -13 -24 -6 -3 5 1 9 9 9 8 0 15
-2 15 -3z m76 -39 c1 -8 -2 -15 -6 -15 -5 0 -8 9 -7 20 1 21 10 18 13 -5z m38
-31 c3 -8 2 -12 -4 -9 -6 3 -10 10 -10 16 0 14 7 11 14 -7z m2799 -229 c-3 -9
-8 -14 -10 -11 -3 3 -2 9 2 15 9 16 15 13 8 -4z m-2378 -65 c3 -5 1 -10 -4
-10 -6 0 -11 5 -11 10 0 6 2 10 4 10 3 0 8 -4 11 -10z m2307 -29 c-9 -16 -18
-28 -21 -26 -4 5 27 55 34 55 2 0 -4 -13 -13 -29z m-2228 -49 c2 -4 -5 -9 -17
-9 -17 -2 -19 0 -7 7 18 12 18 12 24 2z m2066 -42 c0 -5 -5 -10 -11 -10 -5 0
-7 5 -4 10 3 6 8 10 11 10 2 0 4 -4 4 -10z m-1725 -79 c3 -5 2 -12 -3 -15 -5
-3 -9 1 -9 9 0 17 3 19 12 6z m1609 -19 c3 -5 -1 -9 -9 -9 -8 0 -12 4 -9 9 3
4 7 8 9 8 2 0 6 -4 9 -8z m-1630 -23 c-2 -4 2 -10 8 -12 7 -3 8 -6 2 -6 -5 -1
-18 5 -28 12 -16 12 -16 13 3 13 11 0 18 -3 15 -7z m1424 -34 c-3 -3 -9 2 -12
12 -6 14 -5 15 5 6 7 -7 10 -15 7 -18z m-101 -20 c0 -8 -4 -12 -9 -9 -5 3 -6
10 -3 15 9 13 12 11 12 -6z m98 -5 c3 -5 1 -10 -4 -10 -6 0 -11 5 -11 10 0 6
2 10 4 10 3 0 8 -4 11 -10z m-1235 -25 c0 -2 -9 -3 -19 -2 -11 0 -18 5 -15 9
4 6 34 0 34 -7z m660 5 c0 -5 -5 -10 -11 -10 -5 0 -7 5 -4 10 3 6 8 10 11 10
2 0 4 -4 4 -10z m336 -2 c4 -7 4 -10 -1 -6 -4 4 -15 2 -24 -5 -14 -11 -14 -10
-2 6 16 20 18 21 27 5z m-146 -12 c0 -2 -8 -10 -17 -17 -16 -13 -17 -12 -4 4
13 16 21 21 21 13z m70 -6 c0 -5 -5 -10 -11 -10 -5 0 -7 5 -4 10 3 6 8 10 11
10 2 0 4 -4 4 -10z m143 -5 c-3 -9 -8 -14 -10 -11 -3 3 -2 9 2 15 9 16 15 13
8 -4z m-628 -35 c1 -10 -2 -17 -6 -14 -4 2 -7 13 -6 24 2 23 10 17 12 -10z
m-290 0 c3 -6 -1 -7 -9 -4 -18 7 -21 14 -7 14 6 0 13 -4 16 -10z m332 -5 c0
-8 -4 -12 -9 -9 -5 3 -6 10 -3 15 9 13 12 11 12 -6z m188 6 c-9 -8 -36 -10
-30 -2 2 4 11 8 20 8 8 0 13 -3 10 -6z m61 -3 c-10 -6 -22 -6 -26 -2 -5 5 3
10 18 11 22 1 24 0 8 -9z m94 -14 c0 -8 -19 -13 -24 -6 -3 5 1 9 9 9 8 0 15
-2 15 -3z"/>
<path d="M4063 2818 c2 -7 10 -13 17 -13 7 0 15 6 18 13 2 7 -5 12 -18 12 -13
0 -20 -5 -17 -12z"/>
<path d="M50 2656 c0 -2 7 -7 16 -10 8 -3 12 -2 9 4 -6 10 -25 14 -25 6z"/>
<path d="M70 2350 c0 -5 5 -10 11 -10 5 0 7 5 4 10 -3 6 -8 10 -11 10 -2 0 -4
-4 -4 -10z"/>
<path d="M4073 1754 c-3 -8 -1 -20 4 -25 7 -7 11 -2 11 15 0 29 -6 33 -15 10z"/>
<path d="M235 1420 c3 -5 8 -10 11 -10 2 0 4 5 4 10 0 6 -5 10 -11 10 -5 0 -7
-4 -4 -10z"/>
<path d="M3776 954 c-5 -14 -4 -15 9 -4 17 14 19 20 6 20 -5 0 -12 -7 -15 -16z"/>
<path d="M1375 260 c3 -5 8 -10 11 -10 2 0 4 5 4 10 0 6 -5 10 -11 10 -5 0 -7
-4 -4 -10z"/>
</g>
</svg>
